<mxfile modified="2023-06-16T23:30:49.686Z" host="app.diagrams.net" agent="Mozilla/5.0 (Windows NT 10.0; Win64; x64) AppleWebKit/537.36 (KHTML, like Gecko) Chrome/109.0.0.0 Safari/537.36 Edg/109.0.1518.61" etag="gwqU2-JP-kckip0HEgD2" version="21.4.0" type="github">
  <diagram id="Ht1M8jgEwFfnCIfOTk4-" name="Page-1">
    <mxGraphModel dx="880" dy="484" grid="1" gridSize="10" guides="1" tooltips="1" connect="1" arrows="1" fold="1" page="1" pageScale="1" pageWidth="1169" pageHeight="827" math="0" shadow="0">
      <root>
        <mxCell id="0" />
        <mxCell id="1" parent="0" />
        <mxCell id="UEzPUAAOIrF-is8g5C7q-75" value="AWS Cloud" style="points=[[0,0],[0.25,0],[0.5,0],[0.75,0],[1,0],[1,0.25],[1,0.5],[1,0.75],[1,1],[0.75,1],[0.5,1],[0.25,1],[0,1],[0,0.75],[0,0.5],[0,0.25]];outlineConnect=0;gradientColor=none;html=1;whiteSpace=wrap;fontSize=12;fontStyle=0;shape=mxgraph.aws4.group;grIcon=mxgraph.aws4.group_aws_cloud_alt;strokeColor=#232F3E;fillColor=none;verticalAlign=top;align=left;spacingLeft=30;fontColor=#232F3E;dashed=0;labelBackgroundColor=#ffffff;container=1;pointerEvents=0;collapsible=0;recursiveResize=0;" parent="1" vertex="1">
          <mxGeometry x="270" y="54" width="640" height="506" as="geometry" />
        </mxCell>
        <mxCell id="AX16MIU7CTduU5Au9XsZ-3" value="" style="sketch=0;points=[[0,0,0],[0.25,0,0],[0.5,0,0],[0.75,0,0],[1,0,0],[0,1,0],[0.25,1,0],[0.5,1,0],[0.75,1,0],[1,1,0],[0,0.25,0],[0,0.5,0],[0,0.75,0],[1,0.25,0],[1,0.5,0],[1,0.75,0]];outlineConnect=0;fontColor=#232F3E;gradientColor=#945DF2;gradientDirection=north;fillColor=#5A30B5;strokeColor=#ffffff;dashed=0;verticalLabelPosition=bottom;verticalAlign=top;align=center;html=1;fontSize=12;fontStyle=0;aspect=fixed;shape=mxgraph.aws4.resourceIcon;resIcon=mxgraph.aws4.glue;" vertex="1" parent="UEzPUAAOIrF-is8g5C7q-75">
          <mxGeometry x="491" y="52" width="78" height="78" as="geometry" />
        </mxCell>
        <mxCell id="AX16MIU7CTduU5Au9XsZ-4" value="AWS Glue" style="text;html=1;strokeColor=none;fillColor=none;align=center;verticalAlign=middle;whiteSpace=wrap;rounded=0;" vertex="1" parent="UEzPUAAOIrF-is8g5C7q-75">
          <mxGeometry x="509" y="130" width="60" height="30" as="geometry" />
        </mxCell>
        <mxCell id="AX16MIU7CTduU5Au9XsZ-28" style="edgeStyle=orthogonalEdgeStyle;rounded=0;orthogonalLoop=1;jettySize=auto;html=1;entryX=0;entryY=0.5;entryDx=0;entryDy=0;entryPerimeter=0;startArrow=classic;startFill=1;" edge="1" parent="UEzPUAAOIrF-is8g5C7q-75" source="AX16MIU7CTduU5Au9XsZ-24" target="AX16MIU7CTduU5Au9XsZ-26">
          <mxGeometry relative="1" as="geometry" />
        </mxCell>
        <mxCell id="AX16MIU7CTduU5Au9XsZ-24" value="AWS Database Migration Service" style="sketch=0;outlineConnect=0;fontColor=#232F3E;gradientColor=none;strokeColor=#ffffff;fillColor=#232F3E;dashed=0;verticalLabelPosition=middle;verticalAlign=bottom;align=center;html=1;whiteSpace=wrap;fontSize=10;fontStyle=1;spacing=3;shape=mxgraph.aws4.productIcon;prIcon=mxgraph.aws4.database_migration_service;" vertex="1" parent="UEzPUAAOIrF-is8g5C7q-75">
          <mxGeometry x="110" y="31" width="80" height="120" as="geometry" />
        </mxCell>
        <mxCell id="AX16MIU7CTduU5Au9XsZ-29" style="edgeStyle=orthogonalEdgeStyle;rounded=0;orthogonalLoop=1;jettySize=auto;html=1;startArrow=classic;startFill=1;" edge="1" parent="UEzPUAAOIrF-is8g5C7q-75" source="AX16MIU7CTduU5Au9XsZ-26" target="AX16MIU7CTduU5Au9XsZ-3">
          <mxGeometry relative="1" as="geometry" />
        </mxCell>
        <mxCell id="AX16MIU7CTduU5Au9XsZ-26" value="" style="sketch=0;points=[[0,0,0],[0.25,0,0],[0.5,0,0],[0.75,0,0],[1,0,0],[0,1,0],[0.25,1,0],[0.5,1,0],[0.75,1,0],[1,1,0],[0,0.25,0],[0,0.5,0],[0,0.75,0],[1,0.25,0],[1,0.5,0],[1,0.75,0]];outlineConnect=0;fontColor=#232F3E;gradientColor=#60A337;gradientDirection=north;fillColor=#277116;strokeColor=#ffffff;dashed=0;verticalLabelPosition=bottom;verticalAlign=top;align=center;html=1;fontSize=12;fontStyle=0;aspect=fixed;shape=mxgraph.aws4.resourceIcon;resIcon=mxgraph.aws4.s3;" vertex="1" parent="UEzPUAAOIrF-is8g5C7q-75">
          <mxGeometry x="288" y="52" width="78" height="78" as="geometry" />
        </mxCell>
        <mxCell id="AX16MIU7CTduU5Au9XsZ-27" value="AWS S3" style="text;html=1;strokeColor=none;fillColor=none;align=center;verticalAlign=middle;whiteSpace=wrap;rounded=0;" vertex="1" parent="UEzPUAAOIrF-is8g5C7q-75">
          <mxGeometry x="297" y="130" width="60" height="30" as="geometry" />
        </mxCell>
        <mxCell id="AX16MIU7CTduU5Au9XsZ-74" style="rounded=0;orthogonalLoop=1;jettySize=auto;html=1;" edge="1" parent="UEzPUAAOIrF-is8g5C7q-75" source="AX16MIU7CTduU5Au9XsZ-31" target="AX16MIU7CTduU5Au9XsZ-44">
          <mxGeometry relative="1" as="geometry" />
        </mxCell>
        <mxCell id="AX16MIU7CTduU5Au9XsZ-31" value="Tabla Completa" style="shape=table;startSize=20;container=1;collapsible=0;childLayout=tableLayout;strokeColor=default;fontSize=16;" vertex="1" parent="UEzPUAAOIrF-is8g5C7q-75">
          <mxGeometry x="70" y="366" width="120" height="60" as="geometry" />
        </mxCell>
        <mxCell id="AX16MIU7CTduU5Au9XsZ-32" value="" style="shape=tableRow;horizontal=0;startSize=0;swimlaneHead=0;swimlaneBody=0;strokeColor=inherit;top=0;left=0;bottom=0;right=0;collapsible=0;dropTarget=0;fillColor=none;points=[[0,0.5],[1,0.5]];portConstraint=eastwest;fontSize=16;" vertex="1" parent="AX16MIU7CTduU5Au9XsZ-31">
          <mxGeometry y="20" width="120" height="13" as="geometry" />
        </mxCell>
        <mxCell id="AX16MIU7CTduU5Au9XsZ-33" value="" style="shape=partialRectangle;html=1;whiteSpace=wrap;connectable=0;strokeColor=inherit;overflow=hidden;fillColor=none;top=0;left=0;bottom=0;right=0;pointerEvents=1;fontSize=16;" vertex="1" parent="AX16MIU7CTduU5Au9XsZ-32">
          <mxGeometry width="40" height="13" as="geometry">
            <mxRectangle width="40" height="13" as="alternateBounds" />
          </mxGeometry>
        </mxCell>
        <mxCell id="AX16MIU7CTduU5Au9XsZ-34" value="" style="shape=partialRectangle;html=1;whiteSpace=wrap;connectable=0;strokeColor=inherit;overflow=hidden;fillColor=none;top=0;left=0;bottom=0;right=0;pointerEvents=1;fontSize=16;" vertex="1" parent="AX16MIU7CTduU5Au9XsZ-32">
          <mxGeometry x="40" width="40" height="13" as="geometry">
            <mxRectangle width="40" height="13" as="alternateBounds" />
          </mxGeometry>
        </mxCell>
        <mxCell id="AX16MIU7CTduU5Au9XsZ-35" value="" style="shape=partialRectangle;html=1;whiteSpace=wrap;connectable=0;strokeColor=inherit;overflow=hidden;fillColor=none;top=0;left=0;bottom=0;right=0;pointerEvents=1;fontSize=16;" vertex="1" parent="AX16MIU7CTduU5Au9XsZ-32">
          <mxGeometry x="80" width="40" height="13" as="geometry">
            <mxRectangle width="40" height="13" as="alternateBounds" />
          </mxGeometry>
        </mxCell>
        <mxCell id="AX16MIU7CTduU5Au9XsZ-36" value="" style="shape=tableRow;horizontal=0;startSize=0;swimlaneHead=0;swimlaneBody=0;strokeColor=inherit;top=0;left=0;bottom=0;right=0;collapsible=0;dropTarget=0;fillColor=none;points=[[0,0.5],[1,0.5]];portConstraint=eastwest;fontSize=16;" vertex="1" parent="AX16MIU7CTduU5Au9XsZ-31">
          <mxGeometry y="33" width="120" height="14" as="geometry" />
        </mxCell>
        <mxCell id="AX16MIU7CTduU5Au9XsZ-37" value="" style="shape=partialRectangle;html=1;whiteSpace=wrap;connectable=0;strokeColor=inherit;overflow=hidden;fillColor=none;top=0;left=0;bottom=0;right=0;pointerEvents=1;fontSize=16;" vertex="1" parent="AX16MIU7CTduU5Au9XsZ-36">
          <mxGeometry width="40" height="14" as="geometry">
            <mxRectangle width="40" height="14" as="alternateBounds" />
          </mxGeometry>
        </mxCell>
        <mxCell id="AX16MIU7CTduU5Au9XsZ-38" value="" style="shape=partialRectangle;html=1;whiteSpace=wrap;connectable=0;strokeColor=inherit;overflow=hidden;fillColor=none;top=0;left=0;bottom=0;right=0;pointerEvents=1;fontSize=16;" vertex="1" parent="AX16MIU7CTduU5Au9XsZ-36">
          <mxGeometry x="40" width="40" height="14" as="geometry">
            <mxRectangle width="40" height="14" as="alternateBounds" />
          </mxGeometry>
        </mxCell>
        <mxCell id="AX16MIU7CTduU5Au9XsZ-39" value="" style="shape=partialRectangle;html=1;whiteSpace=wrap;connectable=0;strokeColor=inherit;overflow=hidden;fillColor=none;top=0;left=0;bottom=0;right=0;pointerEvents=1;fontSize=16;" vertex="1" parent="AX16MIU7CTduU5Au9XsZ-36">
          <mxGeometry x="80" width="40" height="14" as="geometry">
            <mxRectangle width="40" height="14" as="alternateBounds" />
          </mxGeometry>
        </mxCell>
        <mxCell id="AX16MIU7CTduU5Au9XsZ-40" value="" style="shape=tableRow;horizontal=0;startSize=0;swimlaneHead=0;swimlaneBody=0;strokeColor=inherit;top=0;left=0;bottom=0;right=0;collapsible=0;dropTarget=0;fillColor=none;points=[[0,0.5],[1,0.5]];portConstraint=eastwest;fontSize=16;" vertex="1" parent="AX16MIU7CTduU5Au9XsZ-31">
          <mxGeometry y="47" width="120" height="13" as="geometry" />
        </mxCell>
        <mxCell id="AX16MIU7CTduU5Au9XsZ-41" value="" style="shape=partialRectangle;html=1;whiteSpace=wrap;connectable=0;strokeColor=inherit;overflow=hidden;fillColor=none;top=0;left=0;bottom=0;right=0;pointerEvents=1;fontSize=16;" vertex="1" parent="AX16MIU7CTduU5Au9XsZ-40">
          <mxGeometry width="40" height="13" as="geometry">
            <mxRectangle width="40" height="13" as="alternateBounds" />
          </mxGeometry>
        </mxCell>
        <mxCell id="AX16MIU7CTduU5Au9XsZ-42" value="" style="shape=partialRectangle;html=1;whiteSpace=wrap;connectable=0;strokeColor=inherit;overflow=hidden;fillColor=none;top=0;left=0;bottom=0;right=0;pointerEvents=1;fontSize=16;" vertex="1" parent="AX16MIU7CTduU5Au9XsZ-40">
          <mxGeometry x="40" width="40" height="13" as="geometry">
            <mxRectangle width="40" height="13" as="alternateBounds" />
          </mxGeometry>
        </mxCell>
        <mxCell id="AX16MIU7CTduU5Au9XsZ-43" value="" style="shape=partialRectangle;html=1;whiteSpace=wrap;connectable=0;strokeColor=inherit;overflow=hidden;fillColor=none;top=0;left=0;bottom=0;right=0;pointerEvents=1;fontSize=16;" vertex="1" parent="AX16MIU7CTduU5Au9XsZ-40">
          <mxGeometry x="80" width="40" height="13" as="geometry">
            <mxRectangle width="40" height="13" as="alternateBounds" />
          </mxGeometry>
        </mxCell>
        <mxCell id="AX16MIU7CTduU5Au9XsZ-44" value="" style="sketch=0;outlineConnect=0;fontColor=#232F3E;gradientColor=none;fillColor=#2E27AD;strokeColor=none;dashed=0;verticalLabelPosition=bottom;verticalAlign=top;align=center;html=1;fontSize=12;fontStyle=0;aspect=fixed;pointerEvents=1;shape=mxgraph.aws4.rds_oracle_instance;" vertex="1" parent="UEzPUAAOIrF-is8g5C7q-75">
          <mxGeometry x="286" y="246" width="78" height="78" as="geometry" />
        </mxCell>
        <mxCell id="AX16MIU7CTduU5Au9XsZ-73" style="edgeStyle=orthogonalEdgeStyle;rounded=0;orthogonalLoop=1;jettySize=auto;html=1;" edge="1" parent="UEzPUAAOIrF-is8g5C7q-75" source="AX16MIU7CTduU5Au9XsZ-46" target="AX16MIU7CTduU5Au9XsZ-44">
          <mxGeometry relative="1" as="geometry" />
        </mxCell>
        <mxCell id="AX16MIU7CTduU5Au9XsZ-46" value="Tabla Completa" style="shape=table;startSize=20;container=1;collapsible=0;childLayout=tableLayout;strokeColor=default;fontSize=16;" vertex="1" parent="UEzPUAAOIrF-is8g5C7q-75">
          <mxGeometry x="265" y="366" width="120" height="60" as="geometry" />
        </mxCell>
        <mxCell id="AX16MIU7CTduU5Au9XsZ-47" value="" style="shape=tableRow;horizontal=0;startSize=0;swimlaneHead=0;swimlaneBody=0;strokeColor=inherit;top=0;left=0;bottom=0;right=0;collapsible=0;dropTarget=0;fillColor=none;points=[[0,0.5],[1,0.5]];portConstraint=eastwest;fontSize=16;" vertex="1" parent="AX16MIU7CTduU5Au9XsZ-46">
          <mxGeometry y="20" width="120" height="13" as="geometry" />
        </mxCell>
        <mxCell id="AX16MIU7CTduU5Au9XsZ-48" value="" style="shape=partialRectangle;html=1;whiteSpace=wrap;connectable=0;strokeColor=inherit;overflow=hidden;fillColor=none;top=0;left=0;bottom=0;right=0;pointerEvents=1;fontSize=16;" vertex="1" parent="AX16MIU7CTduU5Au9XsZ-47">
          <mxGeometry width="40" height="13" as="geometry">
            <mxRectangle width="40" height="13" as="alternateBounds" />
          </mxGeometry>
        </mxCell>
        <mxCell id="AX16MIU7CTduU5Au9XsZ-49" value="" style="shape=partialRectangle;html=1;whiteSpace=wrap;connectable=0;strokeColor=inherit;overflow=hidden;fillColor=none;top=0;left=0;bottom=0;right=0;pointerEvents=1;fontSize=16;" vertex="1" parent="AX16MIU7CTduU5Au9XsZ-47">
          <mxGeometry x="40" width="40" height="13" as="geometry">
            <mxRectangle width="40" height="13" as="alternateBounds" />
          </mxGeometry>
        </mxCell>
        <mxCell id="AX16MIU7CTduU5Au9XsZ-50" value="" style="shape=partialRectangle;html=1;whiteSpace=wrap;connectable=0;strokeColor=inherit;overflow=hidden;fillColor=none;top=0;left=0;bottom=0;right=0;pointerEvents=1;fontSize=16;" vertex="1" parent="AX16MIU7CTduU5Au9XsZ-47">
          <mxGeometry x="80" width="40" height="13" as="geometry">
            <mxRectangle width="40" height="13" as="alternateBounds" />
          </mxGeometry>
        </mxCell>
        <mxCell id="AX16MIU7CTduU5Au9XsZ-51" value="" style="shape=tableRow;horizontal=0;startSize=0;swimlaneHead=0;swimlaneBody=0;strokeColor=inherit;top=0;left=0;bottom=0;right=0;collapsible=0;dropTarget=0;fillColor=none;points=[[0,0.5],[1,0.5]];portConstraint=eastwest;fontSize=16;" vertex="1" parent="AX16MIU7CTduU5Au9XsZ-46">
          <mxGeometry y="33" width="120" height="14" as="geometry" />
        </mxCell>
        <mxCell id="AX16MIU7CTduU5Au9XsZ-52" value="" style="shape=partialRectangle;html=1;whiteSpace=wrap;connectable=0;strokeColor=inherit;overflow=hidden;fillColor=none;top=0;left=0;bottom=0;right=0;pointerEvents=1;fontSize=16;" vertex="1" parent="AX16MIU7CTduU5Au9XsZ-51">
          <mxGeometry width="40" height="14" as="geometry">
            <mxRectangle width="40" height="14" as="alternateBounds" />
          </mxGeometry>
        </mxCell>
        <mxCell id="AX16MIU7CTduU5Au9XsZ-53" value="" style="shape=partialRectangle;html=1;whiteSpace=wrap;connectable=0;strokeColor=inherit;overflow=hidden;fillColor=none;top=0;left=0;bottom=0;right=0;pointerEvents=1;fontSize=16;" vertex="1" parent="AX16MIU7CTduU5Au9XsZ-51">
          <mxGeometry x="40" width="40" height="14" as="geometry">
            <mxRectangle width="40" height="14" as="alternateBounds" />
          </mxGeometry>
        </mxCell>
        <mxCell id="AX16MIU7CTduU5Au9XsZ-54" value="" style="shape=partialRectangle;html=1;whiteSpace=wrap;connectable=0;strokeColor=inherit;overflow=hidden;fillColor=none;top=0;left=0;bottom=0;right=0;pointerEvents=1;fontSize=16;" vertex="1" parent="AX16MIU7CTduU5Au9XsZ-51">
          <mxGeometry x="80" width="40" height="14" as="geometry">
            <mxRectangle width="40" height="14" as="alternateBounds" />
          </mxGeometry>
        </mxCell>
        <mxCell id="AX16MIU7CTduU5Au9XsZ-55" value="" style="shape=tableRow;horizontal=0;startSize=0;swimlaneHead=0;swimlaneBody=0;strokeColor=inherit;top=0;left=0;bottom=0;right=0;collapsible=0;dropTarget=0;fillColor=none;points=[[0,0.5],[1,0.5]];portConstraint=eastwest;fontSize=16;" vertex="1" parent="AX16MIU7CTduU5Au9XsZ-46">
          <mxGeometry y="47" width="120" height="13" as="geometry" />
        </mxCell>
        <mxCell id="AX16MIU7CTduU5Au9XsZ-56" value="" style="shape=partialRectangle;html=1;whiteSpace=wrap;connectable=0;strokeColor=inherit;overflow=hidden;fillColor=none;top=0;left=0;bottom=0;right=0;pointerEvents=1;fontSize=16;" vertex="1" parent="AX16MIU7CTduU5Au9XsZ-55">
          <mxGeometry width="40" height="13" as="geometry">
            <mxRectangle width="40" height="13" as="alternateBounds" />
          </mxGeometry>
        </mxCell>
        <mxCell id="AX16MIU7CTduU5Au9XsZ-57" value="" style="shape=partialRectangle;html=1;whiteSpace=wrap;connectable=0;strokeColor=inherit;overflow=hidden;fillColor=none;top=0;left=0;bottom=0;right=0;pointerEvents=1;fontSize=16;" vertex="1" parent="AX16MIU7CTduU5Au9XsZ-55">
          <mxGeometry x="40" width="40" height="13" as="geometry">
            <mxRectangle width="40" height="13" as="alternateBounds" />
          </mxGeometry>
        </mxCell>
        <mxCell id="AX16MIU7CTduU5Au9XsZ-58" value="" style="shape=partialRectangle;html=1;whiteSpace=wrap;connectable=0;strokeColor=inherit;overflow=hidden;fillColor=none;top=0;left=0;bottom=0;right=0;pointerEvents=1;fontSize=16;" vertex="1" parent="AX16MIU7CTduU5Au9XsZ-55">
          <mxGeometry x="80" width="40" height="13" as="geometry">
            <mxRectangle width="40" height="13" as="alternateBounds" />
          </mxGeometry>
        </mxCell>
        <mxCell id="AX16MIU7CTduU5Au9XsZ-75" style="rounded=0;orthogonalLoop=1;jettySize=auto;html=1;" edge="1" parent="UEzPUAAOIrF-is8g5C7q-75" source="AX16MIU7CTduU5Au9XsZ-59" target="AX16MIU7CTduU5Au9XsZ-44">
          <mxGeometry relative="1" as="geometry" />
        </mxCell>
        <mxCell id="AX16MIU7CTduU5Au9XsZ-59" value="Tabla Completa" style="shape=table;startSize=20;container=1;collapsible=0;childLayout=tableLayout;strokeColor=default;fontSize=16;" vertex="1" parent="UEzPUAAOIrF-is8g5C7q-75">
          <mxGeometry x="460" y="366" width="120" height="60" as="geometry" />
        </mxCell>
        <mxCell id="AX16MIU7CTduU5Au9XsZ-60" value="" style="shape=tableRow;horizontal=0;startSize=0;swimlaneHead=0;swimlaneBody=0;strokeColor=inherit;top=0;left=0;bottom=0;right=0;collapsible=0;dropTarget=0;fillColor=none;points=[[0,0.5],[1,0.5]];portConstraint=eastwest;fontSize=16;" vertex="1" parent="AX16MIU7CTduU5Au9XsZ-59">
          <mxGeometry y="20" width="120" height="13" as="geometry" />
        </mxCell>
        <mxCell id="AX16MIU7CTduU5Au9XsZ-61" value="" style="shape=partialRectangle;html=1;whiteSpace=wrap;connectable=0;strokeColor=inherit;overflow=hidden;fillColor=none;top=0;left=0;bottom=0;right=0;pointerEvents=1;fontSize=16;" vertex="1" parent="AX16MIU7CTduU5Au9XsZ-60">
          <mxGeometry width="40" height="13" as="geometry">
            <mxRectangle width="40" height="13" as="alternateBounds" />
          </mxGeometry>
        </mxCell>
        <mxCell id="AX16MIU7CTduU5Au9XsZ-62" value="" style="shape=partialRectangle;html=1;whiteSpace=wrap;connectable=0;strokeColor=inherit;overflow=hidden;fillColor=none;top=0;left=0;bottom=0;right=0;pointerEvents=1;fontSize=16;" vertex="1" parent="AX16MIU7CTduU5Au9XsZ-60">
          <mxGeometry x="40" width="40" height="13" as="geometry">
            <mxRectangle width="40" height="13" as="alternateBounds" />
          </mxGeometry>
        </mxCell>
        <mxCell id="AX16MIU7CTduU5Au9XsZ-63" value="" style="shape=partialRectangle;html=1;whiteSpace=wrap;connectable=0;strokeColor=inherit;overflow=hidden;fillColor=none;top=0;left=0;bottom=0;right=0;pointerEvents=1;fontSize=16;" vertex="1" parent="AX16MIU7CTduU5Au9XsZ-60">
          <mxGeometry x="80" width="40" height="13" as="geometry">
            <mxRectangle width="40" height="13" as="alternateBounds" />
          </mxGeometry>
        </mxCell>
        <mxCell id="AX16MIU7CTduU5Au9XsZ-64" value="" style="shape=tableRow;horizontal=0;startSize=0;swimlaneHead=0;swimlaneBody=0;strokeColor=inherit;top=0;left=0;bottom=0;right=0;collapsible=0;dropTarget=0;fillColor=none;points=[[0,0.5],[1,0.5]];portConstraint=eastwest;fontSize=16;" vertex="1" parent="AX16MIU7CTduU5Au9XsZ-59">
          <mxGeometry y="33" width="120" height="14" as="geometry" />
        </mxCell>
        <mxCell id="AX16MIU7CTduU5Au9XsZ-65" value="" style="shape=partialRectangle;html=1;whiteSpace=wrap;connectable=0;strokeColor=inherit;overflow=hidden;fillColor=none;top=0;left=0;bottom=0;right=0;pointerEvents=1;fontSize=16;" vertex="1" parent="AX16MIU7CTduU5Au9XsZ-64">
          <mxGeometry width="40" height="14" as="geometry">
            <mxRectangle width="40" height="14" as="alternateBounds" />
          </mxGeometry>
        </mxCell>
        <mxCell id="AX16MIU7CTduU5Au9XsZ-66" value="" style="shape=partialRectangle;html=1;whiteSpace=wrap;connectable=0;strokeColor=inherit;overflow=hidden;fillColor=none;top=0;left=0;bottom=0;right=0;pointerEvents=1;fontSize=16;" vertex="1" parent="AX16MIU7CTduU5Au9XsZ-64">
          <mxGeometry x="40" width="40" height="14" as="geometry">
            <mxRectangle width="40" height="14" as="alternateBounds" />
          </mxGeometry>
        </mxCell>
        <mxCell id="AX16MIU7CTduU5Au9XsZ-67" value="" style="shape=partialRectangle;html=1;whiteSpace=wrap;connectable=0;strokeColor=inherit;overflow=hidden;fillColor=none;top=0;left=0;bottom=0;right=0;pointerEvents=1;fontSize=16;" vertex="1" parent="AX16MIU7CTduU5Au9XsZ-64">
          <mxGeometry x="80" width="40" height="14" as="geometry">
            <mxRectangle width="40" height="14" as="alternateBounds" />
          </mxGeometry>
        </mxCell>
        <mxCell id="AX16MIU7CTduU5Au9XsZ-68" value="" style="shape=tableRow;horizontal=0;startSize=0;swimlaneHead=0;swimlaneBody=0;strokeColor=inherit;top=0;left=0;bottom=0;right=0;collapsible=0;dropTarget=0;fillColor=none;points=[[0,0.5],[1,0.5]];portConstraint=eastwest;fontSize=16;" vertex="1" parent="AX16MIU7CTduU5Au9XsZ-59">
          <mxGeometry y="47" width="120" height="13" as="geometry" />
        </mxCell>
        <mxCell id="AX16MIU7CTduU5Au9XsZ-69" value="" style="shape=partialRectangle;html=1;whiteSpace=wrap;connectable=0;strokeColor=inherit;overflow=hidden;fillColor=none;top=0;left=0;bottom=0;right=0;pointerEvents=1;fontSize=16;" vertex="1" parent="AX16MIU7CTduU5Au9XsZ-68">
          <mxGeometry width="40" height="13" as="geometry">
            <mxRectangle width="40" height="13" as="alternateBounds" />
          </mxGeometry>
        </mxCell>
        <mxCell id="AX16MIU7CTduU5Au9XsZ-70" value="" style="shape=partialRectangle;html=1;whiteSpace=wrap;connectable=0;strokeColor=inherit;overflow=hidden;fillColor=none;top=0;left=0;bottom=0;right=0;pointerEvents=1;fontSize=16;" vertex="1" parent="AX16MIU7CTduU5Au9XsZ-68">
          <mxGeometry x="40" width="40" height="13" as="geometry">
            <mxRectangle width="40" height="13" as="alternateBounds" />
          </mxGeometry>
        </mxCell>
        <mxCell id="AX16MIU7CTduU5Au9XsZ-71" value="" style="shape=partialRectangle;html=1;whiteSpace=wrap;connectable=0;strokeColor=inherit;overflow=hidden;fillColor=none;top=0;left=0;bottom=0;right=0;pointerEvents=1;fontSize=16;" vertex="1" parent="AX16MIU7CTduU5Au9XsZ-68">
          <mxGeometry x="80" width="40" height="13" as="geometry">
            <mxRectangle width="40" height="13" as="alternateBounds" />
          </mxGeometry>
        </mxCell>
        <mxCell id="AX16MIU7CTduU5Au9XsZ-76" value="" style="fillColor=none;strokeColor=#5A6C86;dashed=1;verticalAlign=top;fontStyle=0;fontColor=#5A6C86;whiteSpace=wrap;html=1;" vertex="1" parent="1">
          <mxGeometry x="310" y="290" width="570" height="220" as="geometry" />
        </mxCell>
        <mxCell id="AX16MIU7CTduU5Au9XsZ-77" style="edgeStyle=orthogonalEdgeStyle;rounded=0;orthogonalLoop=1;jettySize=auto;html=1;startArrow=classic;startFill=1;" edge="1" parent="1" source="AX16MIU7CTduU5Au9XsZ-24" target="AX16MIU7CTduU5Au9XsZ-76">
          <mxGeometry relative="1" as="geometry" />
        </mxCell>
      </root>
    </mxGraphModel>
  </diagram>
</mxfile>
